<?xml version="1.0" encoding="UTF-8"?>
<svg id="Calque_1" data-name="Calque 1" xmlns="http://www.w3.org/2000/svg" viewBox="0 0 171.21 203.92">
  <defs>
    <style>
      .cls-1, .cls-2, .cls-3, .cls-4, .cls-5 {
        stroke-linecap: round;
        stroke-linejoin: round;
      }

      .cls-1, .cls-4 {
        stroke: #000;
      }

      .cls-1, .cls-6 {
        fill: #fff;
      }

      .cls-2, .cls-7 {
        fill: #ffc600;
      }

      .cls-2, .cls-8 {
        stroke: #ca1800;
      }

      .cls-3, .cls-4, .cls-5, .cls-9 {
        fill: none;
      }

      .cls-3, .cls-7 {
        stroke: #ff8f00;
      }

      .cls-5 {
        stroke: #0083b5;
      }

      .cls-10 {
        fill: #015370;
        stroke: #003142;
      }

      .cls-10, .cls-11, .cls-12, .cls-7, .cls-8, .cls-13, .cls-14, .cls-15, .cls-16, .cls-17, .cls-18, .cls-9 {
        stroke-miterlimit: 10;
      }

      .cls-11 {
        fill: #0093cc;
        stroke: #0081b0;
      }

      .cls-12 {
        fill: #656a6b;
        stroke: #58381b;
      }

      .cls-8 {
        fill: #e60000;
      }

      .cls-13 {
        fill: #dad5bb;
      }

      .cls-13, .cls-14, .cls-16, .cls-17, .cls-18 {
        stroke: #533920;
      }

      .cls-14 {
        fill: #a49e8d;
      }

      .cls-15 {
        fill: #b47d3a;
      }

      .cls-15, .cls-9 {
        stroke: #4f3a24;
      }

      .cls-16 {
        fill: #666a6b;
      }

      .cls-17 {
        fill: #3a2711;
      }

      .cls-18 {
        fill: #807c7f;
      }

      .cls-19, .cls-20, .cls-21, .cls-22, .cls-6, .cls-23, .cls-24 {
        stroke-width: 0px;
      }

      .cls-20 {
        fill: #58381b;
      }

      .cls-21 {
        fill: #915f16;
      }

      .cls-22 {
        fill: #95f7ff;
      }

      .cls-23 {
        fill: #ffd900;
      }

      .cls-24 {
        fill: #ffc300;
      }
    </style>
  </defs>
  <g>
    <g>
      <path class="cls-24" d="M170.56,150.65c-.18-3.88-.49-7.61-.86-11.04-1.02-9.6-2.5-16.81-2.75-17.97.2-.6.4-1.17.58-1.73.01-.03.03-.07.04-.11,1.24-3.82,2.08-6.72,2.44-7.95.11-.42.17-.65.17-.65l-.33-.61-4.77-8.92-.27-.46-30.23-50.73-.5-.83-.81-.26-4.23-1.34h-33s-.05-.01-.14-.02v131.7h2.81s2.77-.03,2.77-.03l2.09-.24,21.15-2.41,3.27-.37c-4.79,1.06-9.77,1.79-14.73,2.27-.06.01-.11.02-.16.01-3.91.4-7.81.63-11.62.74,1.38,4.81,2.92,8.64,4.54,11.69,6.61,12.5,14.36,12.02,16.61,12.02,13.84,0,17.91-20.82,18.78-26.67-.11,3.58,2.91,5.33,5.44,4.14,2.03-.95,3.62-5.5,3.62-5.5-5.16,20.12,6.73,21.19,10.34,17.58,2.41-2.41,4.28-5.47,5.71-8.96.29-.69.56-1.4.81-2.13s.49-1.48.71-2.25c.44-1.52.82-3.09,1.13-4.71.49-2.43.84-4.95,1.08-7.51.08-.85.15-1.71.21-2.57.32-4.73.31-9.56.1-14.18Z"/>
      <path class="cls-23" d="M95.9,138.18v41.57l1.26.04h.22s1.33-.07,1.33-.07l4.86-.26,9.53-.5s.1,0,.16-.01l11.46-1.9,3.52-.58c-1.37-25.68-16.88-38.38-32.34-38.29Z"/>
      <path class="cls-3" d="M101.48,179.7c1.38,4.81,2.92,8.64,4.54,11.69,6.61,12.5,14.36,12.02,16.61,12.02,13.84,0,17.91-20.82,18.78-26.67-.11,3.58,2.91,5.33,5.44,4.14,2.03-.95,3.62-5.5,3.62-5.5-5.16,20.12,6.73,21.19,10.34,17.58,2.41-2.41,4.28-5.47,5.71-8.96.29-.69.56-1.4.81-2.13s.49-1.48.71-2.25c.44-1.52.82-3.09,1.13-4.71.49-2.43.84-4.95,1.08-7.51.08-.85.15-1.71.21-2.57.32-4.73.31-9.56.1-14.18-.18-3.88-.49-7.61-.86-11.04-1.06-9.76-2.59-17.03-2.78-17.87,0-.05,0-.07,0-.07,0-.01,0-.04.02-.09.05-.23.28-.84.6-1.67,0-.03.03-.07.04-.11.51-1.31,1.23-3.1,1.87-4.68.43-1.05.61-2.17.57-3.27,0-.42-.07-.85-.16-1.26-.17-.84-.48-1.66-.93-2.42l-3.84-6.5-.27-.46-29.05-49.19c-.33-.56-.73-1.08-1.18-1.54-.4-.41-.84-.77-1.31-1.09-1.24-.82-2.7-1.3-4.23-1.34-.09-.01-.18-.01-.27-.01h-32.87M127.99,176.68c-4.79,1.06-9.77,1.79-14.73,2.27-.06.01-.11.02-.16.01-3.91.4-7.81.63-11.62.74"/>
      <path class="cls-3" d="M151.75,137.71c1.3,4.46,2.4,14.43-2.57,23.26-2.7,4.79-4.62,8.36-6.45,11.61-.53.94-.82,1.83-1.04,2.6-.13.45-.16.64-.27,1.46"/>
      <path class="cls-7" d="M101.48,179.7c-1.38.04-2.75.07-4.1.08h-.1s-.12,0-.12,0c-.42,0-.84.01-1.26,0v-.06h2.81s2.77-.03,2.77-.03Z"/>
    </g>
    <g>
      <path class="cls-24" d="M21.24,150.66c.18-3.88.49-7.61.86-11.04,1.02-9.6,2.5-16.81,2.75-17.97-.2-.6-.4-1.17-.58-1.73-.01-.03-.03-.07-.04-.11-1.24-3.82-2.08-6.72-2.44-7.95-.11-.42-.17-.65-.17-.65l.33-.61,4.77-8.92.27-.46,30.23-50.73.5-.83.81-.26,4.23-1.34h33s.05-.01.14-.02v131.7h-2.81s-2.77-.03-2.77-.03l-2.09-.24-21.15-2.41-3.27-.37c4.79,1.06,9.77,1.79,14.73,2.27.06.01.11.02.16.01,3.91.4,7.81.63,11.62.74-1.38,4.81-2.92,8.64-4.54,11.69-6.61,12.5-14.36,12.02-16.61,12.02-13.84,0-17.91-20.82-18.78-26.67.11,3.58-2.91,5.33-5.44,4.14-2.03-.95-3.62-5.5-3.62-5.5,5.16,20.12-6.73,21.19-10.34,17.58-2.41-2.41-4.28-5.47-5.71-8.96-.29-.69-.56-1.4-.81-2.13s-.49-1.48-.71-2.25c-.44-1.52-.82-3.09-1.13-4.71-.49-2.43-.84-4.95-1.08-7.51-.08-.85-.15-1.71-.21-2.57-.32-4.73-.31-9.56-.1-14.18Z"/>
      <path class="cls-23" d="M95.9,138.18v41.57l-1.26.04h-.22s-1.33-.07-1.33-.07l-4.86-.26-9.53-.5s-.1,0-.16-.01l-11.46-1.9-3.52-.58c1.37-25.68,16.88-38.38,32.34-38.29Z"/>
      <path class="cls-3" d="M90.32,179.7c-1.38,4.81-2.92,8.64-4.54,11.69-6.61,12.5-14.36,12.02-16.61,12.02-13.84,0-17.91-20.82-18.78-26.67.11,3.58-2.91,5.33-5.44,4.14-2.03-.95-3.62-5.5-3.62-5.5,5.16,20.12-6.73,21.19-10.34,17.58-2.41-2.41-4.28-5.47-5.71-8.96-.29-.69-.56-1.4-.81-2.13s-.49-1.48-.71-2.25c-.44-1.52-.82-3.09-1.13-4.71-.49-2.43-.84-4.95-1.08-7.51-.08-.85-.15-1.71-.21-2.57-.32-4.73-.31-9.56-.1-14.18.18-3.88.49-7.61.86-11.04,1.06-9.76,2.59-17.03,2.78-17.87,0-.05,0-.07,0-.07,0,0,0-.04-.02-.09-.05-.23-.28-.84-.6-1.67,0-.03-.03-.07-.04-.11-.51-1.31-1.23-3.1-1.87-4.68-.43-1.05-.61-2.17-.57-3.27,0-.42.07-.85.16-1.26.17-.84.48-1.66.93-2.42l3.84-6.5.27-.46,29.05-49.19c.33-.56.73-1.08,1.18-1.54.4-.41.84-.77,1.31-1.09,1.24-.82,2.7-1.3,4.23-1.34.09,0,.18,0,.27,0h32.87M63.81,176.68c4.79,1.06,9.77,1.79,14.73,2.27.06,0,.11.02.16,0,3.91.4,7.81.63,11.62.74"/>
      <path class="cls-3" d="M40.05,137.72c-1.3,4.46-2.4,14.43,2.57,23.26,2.7,4.79,4.62,8.36,6.45,11.61.53.94.82,1.83,1.04,2.6.13.45.16.64.27,1.46"/>
      <path class="cls-7" d="M90.32,179.71c1.38.04,2.75.07,4.1.08h.1s.12,0,.12,0c.42,0,.84.01,1.26,0v-.06h-2.81s-2.77-.03-2.77-.03Z"/>
    </g>
  </g>
  <path class="cls-19" d="M83.62,121.46c-.84.42-1.75-.43-1.37-1.29,2.08-4.72,7.28-13.78,16.27-12.56,0,0,10.44.46,12.54,14.29.13.85-.82,1.44-1.53.97-2.5-1.63-7.45-4.18-13.85-4.05-3.15.06-7.72.46-12.05,2.64Z"/>
  <path class="cls-6" d="M111.32,100.95s-7.28-7.19-.29-18.28,17.62-2.01,19.89,2.56,3.45,9.54.59,16.53l-10.13-2.15-10.06,1.34Z"/>
  <ellipse class="cls-19" cx="118.28" cy="92.74" rx="4.12" ry="5.25"/>
  <path class="cls-4" d="M113.23,104.76s-9.96-11.08-2.2-22.09c7.28-10.32,17.62-2.01,19.89,2.56s4.74,13.45-2.61,21.53"/>
  <path class="cls-1" d="M80.88,102.58c.86-.5,1.5-1.29,1.82-2.23,1.19-3.57,3.33-13.21-4.99-20.07-9.75-8.03-17.34.44-18.76,7.21-.98,4.66-.37,12.75,5.82,17.82.89.73,2.02,1.09,3.17,1.07,1.47-.03,3.69-.21,6.05-.9,3.28-.97,5.59-2.13,6.9-2.89Z"/>
  <ellipse class="cls-19" cx="72.65" cy="93.49" rx="4.12" ry="5.25" transform="translate(-17.14 16.31) rotate(-11.47)"/>
  <path class="cls-4" d="M110.72,101.1c1.72-.47,11.83-2.92,20.8.97"/>
  <path class="cls-4" d="M113.24,66.45c3.35-1.09,6.46,1.88,6.86,3.8"/>
  <path class="cls-4" d="M69.31,68.24c.31-3.5,4.26-5.2,6.19-4.82"/>
  <path class="cls-2" d="M145.03,62.08c-12.97-5.65-30.68-9.13-50.21-9.13-18.47,0-35.31,3.11-48.06,8.23.05-2.68.38-5.29.94-7.83.73-3.32,1.86-6.51,3.35-9.53,7.69-15.55,24.88-26.37,44.83-26.37s37.55,11.08,45.1,26.92h0c1.57,3.28,2.71,6.77,3.37,10.4.44,2.37.66,4.81.67,7.29Z"/>
  <path class="cls-22" d="M51.22,44.33s49.33-11.23,88.84-1.54c0,0-11.23-24.86-46.4-24.86-26.71,0-41.38,20.98-42.44,26.4Z"/>
  <path class="cls-8" d="M49.58,47.16l.89,5.33,2.88-7.75c.39.92,2.12,5.82,2.51,6.74,1.62-2.23,3.24-4.46,4.86-6.68l1.45,4.95c1.3-2.62,2.6-5.24,3.9-7.86,1.04,2.35,2.08,4.7,3.12,7.05,1.28-2.61,2.56-5.22,3.84-7.83.74,2.81,1.48,5.62,2.22,8.43,1.57-2.78,3.15-5.56,4.72-8.34,1.16,2.77,2.33,5.54,3.49,8.32,1.43-3.44,2.86-6.87,4.29-10.31,1.4,3.11,2.8,6.22,4.2,9.33,1.35-2.97,2.48-5.95,3.83-8.92h0c1.35,2.97,2.7,5.95,4.05,8.92,1.4-3.11,2.8-6.22,4.2-9.33,1.43,3.44,2.86,6.87,4.29,10.31,1.16-2.77,2.33-5.54,3.49-8.32,1.57,2.78,3.15,5.56,4.72,8.34.74-2.81,1.48-5.62,2.22-8.43,1.28,2.61,2.56,5.22,3.84,7.83,1.04-2.35,2.08-4.7,3.12-7.05,1.3,2.62,2.6,5.24,3.9,7.86.48-1.65.97-3.3,1.45-4.95,1.62,2.23,3.24,4.46,4.86,6.68.19-.4,1.36-6.98,1.18-6.14l4.04,7.16.75-6.06s-1.44-3.18-2.02-4.19c-.64-1.12-2.85-4.29-2.85-4.29-.04.15-1.09,1.82-1.09,1.82,0,0-3.24-4.46-4.86-6.68-.48,1.65-.97,3.3-1.45,4.95l-3.9-7.86c-1.04,2.35-2.08,4.7-3.12,7.05-1.28-2.61-2.56-5.22-3.84-7.83-.74,2.81-1.48,5.62-2.22,8.43-1.57-2.78-3.15-5.56-4.72-8.34-1.16,2.77-2.33,5.54-3.49,8.32-1.43-3.44-2.86-6.87-4.29-10.31-1.4,3.11-2.8,6.22-4.2,9.33-1.35-2.97-3.83-8.92-3.83-8.92-1.35,2.97-2.7,5.95-4.05,8.92-1.4-3.11-2.8-6.22-4.2-9.33-1.43,3.44-2.86,6.87-4.29,10.31-1.16-2.77-2.33-5.54-3.49-8.32-1.57,2.78-3.15,5.56-4.72,8.34-.74-2.81-1.48-5.62-2.22-8.43-1.28,2.61-2.56,5.22-3.84,7.83-1.04-2.35-2.08-4.7-3.12-7.05l-3.9,7.86c-.48-1.65-.97-3.3-1.45-4.95-1.62,2.23-3.24,4.46-4.86,6.68-.39-.92-.66-1.23-1.05-2.15,0,0-2.3,3.47-2.96,4.69s-2.26,4.85-2.26,4.85Z"/>
  <path class="cls-11" d="M84.32,18.45c-.95.12-1.76-.77-1.63-1.73s.81-1.72,1.26-2.57.59-2.06-.17-2.64c-.81-.62-.77-1.91-.23-2.77s1.42-1.44,2.22-2.07,1.56-1.45,1.67-2.46c.17-1.6,1.36-3.05,2.9-3.53s3.34.04,4.39,1.27c.7.82,2.14.81,2.83-.02.98-1.18,2.76-1.61,4.16-1s2.31,2.2,2.12,3.72c-.16,1.26.81,2.37,1.81,3.14s2.17,1.44,2.74,2.58.09,2.89-1.18,3c-.95.09-.91,1.53-.39,2.33s1.24,1.78.74,2.58c-8.21-1.33-14.45-.9-23.22.17Z"/>
  <path class="cls-5" d="M145.03,62.08c-12.97-5.65-30.68-9.13-50.21-9.13-18.47,0-35.31,3.11-48.06,8.23.05-2.68.38-5.29.94-7.83.73-3.32,1.86-6.51,3.35-9.53,7.69-15.55,24.88-26.37,44.83-26.37s37.55,11.08,45.1,26.92h0c1.57,3.28,2.71,6.77,3.37,10.4.44,2.37.66,4.81.67,7.29Z"/>
  <path class="cls-10" d="M154.75,72.75c-.86,2.61-2.42,9.56-5.97,8.24-14.11-5.29-32.28-8.47-52.12-8.47-.25,0-.51,0-.76.01-.25-.01-.51-.01-.76-.01-19.84,0-38.01,3.18-52.12,8.47-3.55,1.32-5.11-5.63-5.97-8.24-.67-2.03-2.55-6.86,2.63-9.11,14.54-6.34,34.35-10.25,56.22-10.3,21.87.05,41.68,3.96,56.22,10.3,5.18,2.25,3.3,7.08,2.63,9.11Z"/>
  <path class="cls-17" d="M35.48,74.36c14.9-7.03,14.07,14.15,13.98,16.93-.09,2.78-3.93,34.25-.29,60s5.63,45.71-4.23,50.43c-9.86,4.72-24.64-2.18-27.84-26.12-3.2-23.94-1.77-46.81-1.77-52.57,0-18.5,5.25-41.64,20.15-48.67Z"/>
  <path class="cls-15" d="M32.89,74.36c14.9-7.03,14.07,14.15,13.98,16.93-.09,2.78-3.93,34.25-.29,60s5.63,45.71-4.23,50.43c-9.86,4.72-24.64-2.18-27.84-26.12-3.2-23.94-1.77-46.81-1.77-52.57,0-18.5,5.25-41.64,20.15-48.67Z"/>
  <path class="cls-21" d="M13.52,163.55l10.68,1.12,9.48-11.85c-.06-1.5-.75-3.41-1.85-5.23-.05-.09-.1-.17-.17-.26-2.87-4.57-8.3-8.37-12.76-3.09-1.37,1.63-2.65,2.96-3.81,4.05-.91.88-1.76,1.6-2.53,2.19l.96,13.07Z"/>
  <path class="cls-21" d="M40.22,73.19l.24.07c-1.34.14-2.89.31-4.14.71-.02.01-.05.02-.07.03-1.78.57-3.43,1.46-4.79,2.81-2.09,2.05-3.55,5.14-3.93,9.76-.8,9.72,8.13,15.55-10.09,19.06-.46.3-1.79.77-3.42,1.6,0,0,.69-6.36,2.69-10.86s4.22-12.13,8.39-15.63c0,0,2.61-4.23,10.93-7.7l4.19.16Z"/>
  <path class="cls-9" d="M32.89,74.36c14.9-7.03,14.07,14.15,13.98,16.93-.09,2.78-3.93,34.25-.29,60s5.63,45.71-4.23,50.43c-9.86,4.72-24.64-2.18-27.84-26.12-3.2-23.94-1.77-46.81-1.77-52.57,0-18.5,5.25-41.64,20.15-48.67Z"/>
  <path class="cls-16" d="M18.85,165.33l.37,4.15c.2,2.8,2.8,4.79,5.55,4.25l7.91-1.55c2.36-.46,3.99-2.65,3.74-5.05l-.34-3.31"/>
  <ellipse class="cls-18" cx="8.11" cy="165.13" rx="7.61" ry="8.62"/>
  <ellipse class="cls-14" cx="9.57" cy="164.13" rx="6.16" ry="7.63"/>
  <ellipse class="cls-18" cx="9.57" cy="111.34" rx="7.61" ry="8.62"/>
  <ellipse class="cls-14" cx="11.03" cy="110.34" rx="6.16" ry="7.63"/>
  <path class="cls-12" d="M10.58,161.33l11.42-3.03c.95-.3,1.99-.04,2.68.69l4.89,5.16c1.04,1.1.94,2.86-.24,3.81-.73.58-1.71,1.12-3.03,1.4-.72.16-1.48-.04-2.07-.49l-3.44-2.64c-.63-.48-1.45-.65-2.22-.46l-6.4,1.17c-1.38.35-2.78-.48-3.15-1.85l-.16-.6c-.35-1.34.4-2.72,1.72-3.14Z"/>
  <path class="cls-16" d="M16.9,111.95l.37,4.15c.2,2.8,2.8,4.79,5.55,4.25l7.91-1.55c2.36-.46,3.99-2.65,3.74-5.05l-.33-7.81"/>
  <path class="cls-12" d="M11.37,107.7s15.81-5.54,19.62-6c1.31-.16,2.45,4.63.96,6.3-.84.94-4.57.71-4.75,2.02-.07.47,1.31,2.04.91,3.17-.8,2.27-5.32,4.28-7.59,2.54l-1.69-2.89c-.63-.48-1.45-.65-2.22-.46l-3.65.92c-1.38.35-2.78-.48-3.15-1.85l-.16-.6c-.35-1.34.4-2.72,1.72-3.14Z"/>
  <ellipse class="cls-18" cx="31.95" cy="156.51" rx="8.5" ry="9.19"/>
  <ellipse class="cls-13" cx="33.58" cy="155.44" rx="6.87" ry="8.12"/>
  <ellipse class="cls-20" cx="34.13" cy="155.44" rx="1" ry="1.37"/>
  <ellipse class="cls-18" cx="34.13" cy="101.95" rx="8.5" ry="9.19"/>
  <ellipse class="cls-13" cx="35.75" cy="100.89" rx="6.87" ry="8.12"/>
  <ellipse class="cls-20" cx="36.3" cy="100.89" rx="1" ry="1.37"/>
</svg>